<svg xmlns="http://www.w3.org/2000/svg" xmlns:xlink="http://www.w3.org/1999/xlink" width="500" zoomAndPan="magnify" viewBox="0 0 375 374.999991" height="500" preserveAspectRatio="xMidYMid meet" version="1.2"><defs><clipPath id="b41cf9e390"><path d="M 0 2.414062 L 375 2.414062 L 375 375 L 0 375 Z M 0 2.414062 "/></clipPath><clipPath id="8445b0037a"><path d="M 187.5 2.414062 C 83.945312 2.414062 0 86.359375 0 189.914062 C 0 293.464844 83.945312 377.414062 187.5 377.414062 C 291.054688 377.414062 375 293.464844 375 189.914062 C 375 86.359375 291.054688 2.414062 187.5 2.414062 Z M 187.5 2.414062 "/></clipPath><clipPath id="146789da9f"><path d="M 0 0.414062 L 375 0.414062 L 375 373 L 0 373 Z M 0 0.414062 "/></clipPath><clipPath id="a5919d5f63"><path d="M 187.5 0.414062 C 83.945312 0.414062 0 84.359375 0 187.914062 C 0 291.464844 83.945312 375.414062 187.5 375.414062 C 291.054688 375.414062 375 291.464844 375 187.914062 C 375 84.359375 291.054688 0.414062 187.5 0.414062 Z M 187.5 0.414062 "/></clipPath><clipPath id="e01f7a387a"><rect x="0" width="375" y="0" height="373"/></clipPath><clipPath id="55236e80cf"><rect x="0" width="318" y="0" height="274"/></clipPath></defs><g id="8ec1967284"><g clip-rule="nonzero" clip-path="url(#b41cf9e390)"><g clip-rule="nonzero" clip-path="url(#8445b0037a)"><g transform="matrix(1,0,0,1,0,2)"><g clip-path="url(#e01f7a387a)"><g clip-rule="nonzero" clip-path="url(#146789da9f)"><g clip-rule="nonzero" clip-path="url(#a5919d5f63)"><path style=" stroke:none;fill-rule:nonzero;fill:#000000;fill-opacity:1;" d="M 0 0.414062 L 375 0.414062 L 375 375.414062 L 0 375.414062 Z M 0 0.414062 "/></g></g></g></g></g></g><g transform="matrix(1,0,0,1,32,53)"><g clip-path="url(#55236e80cf)"><g style="fill:#2a446b;fill-opacity:1;"><g transform="translate(6.205994, 215.959656)"><path style="stroke:none" d="M 35.914062 -87.507812 L 105.027344 -52.828125 L 105.027344 -9.386719 L -4.894531 -66.503906 L -4.894531 -92.503906 L 105.027344 -151.238281 L 105.027344 -106.441406 L 35.871094 -72.230469 L 32.089844 -79.878906 Z M 12.949219 -79.933594 L 92.707031 -119.390625 L 96.492188 -111.742188 L 87.957031 -111.742188 L 87.957031 -137 L 96.492188 -137 L 100.515625 -129.472656 L 7.664062 -79.863281 L 3.640625 -87.390625 L 12.175781 -87.390625 L 12.175781 -71.6875 L 3.640625 -71.6875 L 7.578125 -79.261719 L 100.425781 -31.011719 L 96.492188 -23.441406 L 87.957031 -23.441406 L 87.957031 -47.5625 L 96.492188 -47.5625 L 92.664062 -39.9375 L 28.261719 -72.25 Z M 12.949219 -79.933594 "/></g></g><g style="fill:#2a446b;fill-opacity:1;"><g transform="translate(113.167079, 215.959656)"><path style="stroke:none" d="M -6.027344 12.035156 L 61.488281 -185.589844 L 101.585938 -185.589844 L 30.460938 23.328125 L -9.886719 23.328125 Z M 10.125 17.550781 L 2.046875 14.792969 L 2.046875 6.257812 L 24.351562 6.257812 L 24.351562 14.792969 L 16.273438 12.042969 L 81.585938 -179.804688 L 89.664062 -177.054688 L 89.664062 -168.519531 L 67.589844 -168.519531 L 67.589844 -177.054688 L 75.667969 -174.296875 Z M 10.125 17.550781 "/></g></g><g style="fill:#2a446b;fill-opacity:1;"><g transform="translate(208.5217, 215.959656)"><path style="stroke:none" d="M 106.390625 -85.113281 L 106.390625 -64.222656 L -3.753906 -7.128906 L -3.753906 -51.269531 L 65.398438 -85.480469 L 69.183594 -77.832031 L 65.441406 -70.160156 L -3.753906 -103.902344 L -3.753906 -148.945312 L 106.390625 -90.234375 Z M 89.324219 -85.113281 L 97.859375 -85.113281 L 93.84375 -77.582031 L 0.765625 -127.195312 L 4.777344 -134.726562 L 13.3125 -134.726562 L 13.3125 -109.238281 L 4.777344 -109.238281 L 8.519531 -116.90625 L 88.542969 -77.886719 L 8.5625 -38.320312 L 4.777344 -45.96875 L 13.3125 -45.96875 L 13.3125 -21.164062 L 4.777344 -21.164062 L 0.851562 -28.742188 L 93.929688 -76.988281 L 97.859375 -69.410156 L 89.324219 -69.410156 Z M 89.324219 -85.113281 "/></g></g><g style="fill:#05df72;fill-opacity:1;"><g transform="translate(6.205994, 215.959656)"><path style="stroke:none" d="M 32.09375 -79.875 L 96.5 -47.5625 L 96.5 -23.4375 L 3.640625 -71.6875 L 3.640625 -87.390625 L 96.5 -137 L 96.5 -111.734375 Z M 32.09375 -79.875 "/></g></g><g style="fill:#05df72;fill-opacity:1;"><g transform="translate(113.167079, 215.959656)"><path style="stroke:none" d="M 2.046875 14.796875 L 67.59375 -177.0625 L 89.671875 -177.0625 L 24.34375 14.796875 Z M 2.046875 14.796875 "/></g></g><g style="fill:#05df72;fill-opacity:1;"><g transform="translate(208.5217, 215.959656)"><path style="stroke:none" d="M 97.859375 -85.109375 L 97.859375 -69.40625 L 4.78125 -21.171875 L 4.78125 -45.96875 L 69.1875 -77.828125 L 4.78125 -109.234375 L 4.78125 -134.71875 Z M 97.859375 -85.109375 "/></g></g></g></g></g></svg>