<svg xmlns="http://www.w3.org/2000/svg" viewBox="0 0 375 375" width="500" height="500" preserveAspectRatio="xMidYMid meet">
  <g transform="translate(32,53)">
    <g style="fill:#2a446b;fill-opacity:1;">
      <g transform="translate(6.2,215.96)">
        <path d="M 35.914062 -87.507812 L 105.027344 -52.828125 L 105.027344 -9.386719 L -4.894531 -66.503906 L -4.894531 -92.503906 L 105.027344 -151.238281 L 105.027344 -106.441406 L 35.871094 -72.230469 L 32.089844 -79.878906 Z"/>
      </g>
    </g>
    <g style="fill:#2a446b;fill-opacity:1;">
      <g transform="translate(113.167,215.96)">
        <path d="M -6.027344 12.035156 L 61.488281 -185.589844 L 101.585938 -185.589844 L 30.460938 23.328125 L -9.886719 23.328125 Z"/>
      </g>
    </g>
    <g style="fill:#2a446b;fill-opacity:1;">
      <g transform="translate(208.522,215.96)">
        <path d="M 106.390625 -85.113281 L 106.390625 -64.222656 L -3.753906 -7.128906 L -3.753906 -51.269531 L 65.398438 -85.480469 L 69.183594 -77.832031 L 65.441406 -70.160156 L -3.753906 -103.902344 L -3.753906 -148.945312 L 106.390625 -90.234375 Z"/>
      </g>
    </g>
    <g style="fill:#05df72;fill-opacity:1;">
      <g transform="translate(6.2,215.96)">
        <path d="M 32.09375 -79.875 L 96.5 -47.5625 L 96.5 -23.4375 L 3.640625 -71.6875 L 3.640625 -87.390625 L 96.5 -137 L 96.5 -111.734375 Z"/>
      </g>
    </g>
    <g style="fill:#05df72;fill-opacity:1;">
      <g transform="translate(113.167,215.96)">
        <path d="M 2.046875 14.796875 L 67.59375 -177.0625 L 89.671875 -177.0625 L 24.34375 14.796875 Z"/>
      </g>
    </g>
    <g style="fill:#05df72;fill-opacity:1;">
      <g transform="translate(208.522,215.96)">
        <path d="M 97.859375 -85.109375 L 97.859375 -69.40625 L 4.78125 -21.171875 L 4.78125 -45.96875 L 69.1875 -77.828125 L 4.78125 -109.234375 L 4.78125 -134.71875 Z"/>
      </g>
    </g>
  </g>
</svg>
